@startuml pow  


class juego

class juegopelota

class pelota

class patineta

class rueda

class tablapatineta

class juegopatineta
    
class cielo
   
class tierra
   
    pow o--juego

    juego<|--juegopelota
    juego<|--juegopatineta
    pow o-- patineta
    pow o-- pelota
    juegopelota--* pelota
            patineta--*rueda
            patineta--*tablapatineta
    pelota --* juegopelota
    juegopatineta --* cielo
    juegopatineta --* tierra
juegopatineta --* patineta

class Mascota{
    -vida : int
    +comer(alimneto:Alimento)
}
class Alimento{
    
}
    

@enduml